HIERARCHY
ROOT Hips
{
	OFFSET 0.000000 0.000000 0.000000
	CHANNELS 6 Xposition Yposition Zposition Zrotation Yrotation Xrotation 
	JOINT LeftUpLeg_virtual
	{
		OFFSET 0.000000 0.000000 0.000000
		CHANNELS 3 Zrotation Yrotation Xrotation
		JOINT LeftUpLeg
		{
			OFFSET 8.479694 -4.795517 -0.379053
			CHANNELS 3 Zrotation Yrotation Xrotation
			JOINT LeftLeg
			{
				OFFSET 0.485052 -32.551468 0.112863
				CHANNELS 3 Zrotation Yrotation Xrotation
				JOINT LeftFoot
				{
					OFFSET 0.438033 -32.635670 -3.012641
					CHANNELS 3 Zrotation Yrotation Xrotation
					JOINT LeftToeBase
					{
						OFFSET 0.970169 -13.225353 11.864223
						CHANNELS 3 Zrotation Yrotation Xrotation
						End Site
						{
							OFFSET 0.000000 0.000000 0.000000
						}
					}
				}
			}
		}
	}
	JOINT RightUpLeg_virtual
	{
		OFFSET 0.000000 0.000000 0.000000
		CHANNELS 3 Zrotation Yrotation Xrotation
		JOINT RightUpLeg
		{
			OFFSET -8.479694 -4.795517 -0.379053
			CHANNELS 3 Zrotation Yrotation Xrotation
			JOINT RightLeg
			{
				OFFSET -0.484100 -32.551483 0.112903
				CHANNELS 3 Zrotation Yrotation Xrotation
				JOINT RightFoot
				{
					OFFSET -0.438985 -32.635651 -3.012681
					CHANNELS 3 Zrotation Yrotation Xrotation
					JOINT RightToeBase
					{
						OFFSET -0.970169 -13.225354 11.864223
						CHANNELS 3 Zrotation Yrotation Xrotation
						End Site
						{
							OFFSET 0.000000 0.000000 0.000000
						}
					}
				}
			}
		}
	}
	JOINT Spine_virtual
	{
		OFFSET 0.000000 0.000000 0.000000
		CHANNELS 3 Zrotation Yrotation Xrotation
		JOINT Spine
		{
			OFFSET 0.000000 7.722015 1.166203
			CHANNELS 3 Zrotation Yrotation Xrotation
			JOINT Spine1
			{
				OFFSET 0.000000 12.024086 0.248766
				CHANNELS 3 Zrotation Yrotation Xrotation
				JOINT Spine2
				{
					OFFSET -0.000000 11.503036 -0.491240
					CHANNELS 3 Zrotation Yrotation Xrotation
					JOINT Neck_virtual
					{
						OFFSET 0.000000 0.000000 0.000000
						CHANNELS 3 Zrotation Yrotation Xrotation
						JOINT Neck
						{
							OFFSET 0.000000 18.430687 -3.123054
							CHANNELS 3 Zrotation Yrotation Xrotation
							JOINT Head
							{
								OFFSET -0.000000 9.051071 1.034021
								CHANNELS 3 Zrotation Yrotation Xrotation
								End Site
								{
									OFFSET 0.000000 0.000000 0.000000
								}
							}
						}
					}
					JOINT LeftShoulder_virtual
					{
						OFFSET 0.000000 0.000000 0.000000
						CHANNELS 3 Zrotation Yrotation Xrotation
						JOINT LeftShoulder
						{
							OFFSET 6.197824 13.665230 -4.064723
							CHANNELS 3 Zrotation Yrotation Xrotation
							JOINT LeftArm
							{
								OFFSET 7.778132 -0.187073 -1.709282
								CHANNELS 3 Zrotation Yrotation Xrotation
								JOINT LeftForeArm
								{
									OFFSET 21.954697 0.000000 -2.041093
									CHANNELS 3 Zrotation Yrotation Xrotation
									JOINT LeftHand
									{
										OFFSET 22.992908 0.000000 -0.870901
										CHANNELS 3 Zrotation Yrotation Xrotation
										End Site
										{
											OFFSET 0.000000 0.000000 0.000000
										}
									}
								}
							}
						}
					}
					JOINT RightShoulder_virtual
					{
						OFFSET 0.000000 0.000000 0.000000
						CHANNELS 3 Zrotation Yrotation Xrotation
						JOINT RightShoulder
						{
							OFFSET -6.197824 13.665230 -4.064723
							CHANNELS 3 Zrotation Yrotation Xrotation
							JOINT RightArm
							{
								OFFSET -7.778132 -0.187073 -1.709282
								CHANNELS 3 Zrotation Yrotation Xrotation
								JOINT RightForeArm
								{
									OFFSET -21.954697 0.000000 -2.041093
									CHANNELS 3 Zrotation Yrotation Xrotation
									JOINT RightHand
									{
										OFFSET -22.992908 0.000000 -0.870901
										CHANNELS 3 Zrotation Yrotation Xrotation
										End Site
										{
											OFFSET 0.000000 0.000000 0.000000
										}
									}
								}
							}
						}
					}
				}
			}
		}
	}
}
MOTION
Frames: 12
Frame Time: 0.033333
-1.103398 59.979664 5.428195 -179.876433 4.639106 -179.930583 -0.026856 -4.307160 -0.786735 4.517843 11.505034 -70.602552 4.350493 0.273625 96.821913 0.780090 -11.658316 -20.475773 0.000000 0.000000 0.000000 0.994565 -1.973091 0.249307 6.457389 -13.304361 -73.203113 3.122847 3.024440 94.194265 0.801975 8.134518 -21.211115 0.000000 0.000000 0.000000 -2.322202 -1.379691 0.386295 0.371312 4.016430 -0.139618 -1.322696 -5.013405 10.737512 -0.003359 0.014719 -0.014138 -1.237732 -5.263023 14.719119 -4.159122 9.972258 -5.165359 0.000000 0.000000 0.000000 0.363015 -4.799187 10.461242 3.801451 4.646119 6.451815 -15.941358 -47.653834 -18.233921 -148.272315 -78.183270 176.460942 0.000000 0.000000 0.000000 -3.171529 -3.161274 9.803707 16.751794 22.060381 6.379196 59.224044 11.587351 7.020847 -148.437100 81.691583 -153.512600 0.000000 0.000000 0.000000 
-1.045465 60.012775 5.402276 -179.965226 4.772011 -179.951196 -0.060458 -4.315483 -0.696935 4.657158 11.441629 -70.525132 4.302905 0.327418 96.754568 0.757670 -11.628358 -20.452725 0.000000 0.000000 0.000000 1.011569 -1.956061 0.276281 6.503008 -13.389776 -73.211678 3.150055 3.036486 94.202393 0.869679 8.131519 -21.245869 0.000000 0.000000 0.000000 -2.423851 -1.424965 0.380623 0.208226 3.876960 -0.028093 -1.251290 -4.979114 10.729927 -0.027457 0.106445 0.026686 -1.060847 -5.011951 14.618970 -4.406325 10.049657 -5.801164 0.000000 0.000000 0.000000 0.493336 -4.640063 10.458956 4.072829 4.558511 6.517821 -16.422249 -47.030425 -17.732389 -148.172703 -78.247207 176.267990 0.000000 0.000000 0.000000 -3.023676 -3.061661 9.832288 16.699319 21.709859 6.296010 59.457452 11.615103 7.399888 -149.078099 81.919465 -153.976807 0.000000 0.000000 0.000000 
-1.092014 60.055626 5.371310 -179.885135 4.795500 -179.871270 0.004197 -4.598530 -0.670540 4.781370 11.303232 -70.493331 4.293059 0.352342 96.762600 0.875310 -11.486597 -20.528480 0.000000 0.000000 0.000000 1.117455 -2.211870 0.305502 6.580391 -13.566514 -73.320401 3.204419 2.978571 94.096415 1.050200 8.278198 -21.117717 0.000000 0.000000 0.000000 -2.348206 -1.621799 0.340831 0.147763 3.851869 0.103102 -1.167309 -4.847448 10.699776 -0.006138 0.006221 0.011936 -1.051954 -5.062755 14.577347 -4.814422 10.193652 -6.571076 0.000000 0.000000 0.000000 0.530923 -4.633792 10.451835 4.245159 4.404014 6.499303 -16.930138 -46.763604 -17.584906 -148.757764 -78.039494 176.718973 0.000000 0.000000 0.000000 -3.008254 -2.930027 9.796994 16.592158 21.485986 6.282652 59.655337 11.469757 7.541563 -147.179320 82.208594 -151.942776 0.000000 0.000000 0.000000 
-1.205009 60.083664 5.335637 -179.945650 4.864823 -179.862076 0.034572 -4.939949 -0.555021 4.781816 11.174169 -70.493535 4.320511 0.453666 96.793964 1.036556 -11.391045 -20.615109 0.000000 0.000000 0.000000 1.159093 -2.624991 0.174848 6.554784 -13.754588 -73.271701 3.302320 2.942676 93.988888 1.274161 8.502180 -20.781925 0.000000 0.000000 0.000000 -2.302750 -1.819032 0.371505 0.064796 3.920636 0.262901 -1.171430 -4.849373 10.660483 0.010257 -0.102443 0.001821 -1.033587 -4.884843 14.485972 -5.333276 10.160466 -7.436641 0.000000 0.000000 0.000000 0.552342 -4.513389 10.442313 4.261322 4.415976 6.484032 -17.424646 -46.962062 -17.989733 -149.932911 -77.683887 177.699748 0.000000 0.000000 0.000000 -2.981010 -2.797052 9.798178 16.552270 21.249229 6.205805 59.687678 11.416471 7.230320 -145.472634 82.717969 -150.121575 0.000000 0.000000 0.000000 
-1.309385 60.092354 5.311301 -179.882171 4.799261 -179.846872 0.142242 -5.344290 -0.429754 4.812292 11.013596 -70.564078 4.359081 0.466358 96.862867 1.210285 -11.218156 -20.692275 0.000000 0.000000 0.000000 1.438470 -3.051910 0.205362 6.561714 -14.131856 -73.502773 3.443000 2.990377 94.017663 1.323027 8.620607 -20.542602 0.000000 0.000000 0.000000 -2.183677 -2.198953 0.495258 0.055536 3.798383 0.384208 -1.189742 -4.710409 10.607871 -0.007071 -0.025785 0.004027 -1.097770 -4.844281 14.365722 -6.010421 10.440862 -8.364680 0.000000 0.000000 0.000000 0.526818 -4.453632 10.378072 4.080898 4.535663 6.370051 -17.722604 -47.425002 -19.103129 -150.861639 -77.267096 178.361729 0.000000 0.000000 0.000000 -3.015371 -2.724298 9.785726 16.644889 21.007090 6.227767 59.708093 11.347019 6.845587 -142.612916 83.171828 -147.148489 0.000000 0.000000 0.000000 
-1.352323 60.087822 5.309250 179.940473 4.715350 -179.860492 0.099782 -5.544187 -0.272920 4.723480 10.887738 -70.689753 4.260911 0.562708 96.866064 1.378366 -11.015633 -20.680867 0.000000 0.000000 0.000000 1.256839 -3.309047 0.239985 6.606369 -14.321680 -73.647498 3.413366 2.849929 94.000267 1.405398 8.802300 -20.341637 0.000000 0.000000 0.000000 -2.208321 -2.325638 0.688713 -0.023174 3.756140 0.426853 -1.274107 -4.667261 10.516908 -0.026917 -0.022036 0.004659 -1.089295 -4.732474 14.247438 -6.758249 10.657940 -9.302844 0.000000 0.000000 0.000000 0.543531 -4.412017 10.352818 3.868663 4.698645 6.278870 -17.606023 -48.141700 -20.992112 -152.165946 -76.897712 179.312068 0.000000 0.000000 0.000000 -2.980840 -2.672548 9.730603 16.890544 20.794991 6.243936 59.753835 11.274554 6.587974 -140.989202 83.391467 -145.388062 0.000000 0.000000 0.000000 
-1.291738 60.085743 5.314483 179.856940 4.581501 -179.969720 -0.052241 -5.614608 -0.072868 4.725242 10.851612 -70.812300 4.175582 0.506433 96.827979 1.383476 -10.932736 -20.625851 0.000000 0.000000 0.000000 1.203495 -3.437773 0.389292 6.615598 -14.516068 -73.729932 3.358039 2.759070 94.010997 1.445481 8.979227 -20.320414 0.000000 0.000000 0.000000 -2.222095 -2.361759 0.993771 -0.037106 3.699601 0.479701 -1.320019 -4.631190 10.445898 0.008993 0.010020 0.039334 -1.157466 -4.657455 14.061694 -7.524228 10.686368 -10.192419 0.000000 0.000000 0.000000 0.509754 -4.348397 10.234509 3.583822 4.945856 6.070629 -16.927804 -48.890245 -23.413777 -152.715080 -76.627100 179.416352 0.000000 0.000000 0.000000 -3.037593 -2.718519 9.611726 17.220568 20.730941 6.366827 59.783935 11.262127 6.540298 -140.462294 83.361680 -144.721108 0.000000 0.000000 0.000000 
-1.142123 60.097992 5.329453 179.938424 4.349526 -179.955855 0.169552 -5.655591 0.051437 4.803650 10.737130 -70.855713 4.111516 0.597914 96.691512 1.289435 -11.020427 -20.569931 0.000000 0.000000 0.000000 1.331991 -3.490762 0.547064 6.722285 -14.657227 -73.853005 3.264861 2.596427 93.998095 1.340055 9.020500 -20.332584 0.000000 0.000000 0.000000 -2.140905 -2.413408 1.253667 0.023561 3.567282 0.487374 -1.314277 -4.648498 10.323990 0.025139 -0.011452 0.032934 -1.282128 -4.678077 13.955262 -8.379356 10.959409 -11.078906 0.000000 0.000000 0.000000 0.448085 -4.366849 10.164062 3.356480 5.238109 5.913726 -16.130098 -49.433047 -25.294846 -153.846200 -76.428355 179.979105 0.000000 0.000000 0.000000 -3.107150 -2.648434 9.541106 17.646185 20.718165 6.505979 59.909146 11.282067 6.563520 -142.266598 83.188508 -146.367457 0.000000 0.000000 0.000000 
-0.964558 60.126068 5.347915 179.929640 4.261532 179.980676 0.226595 -5.566475 0.177405 4.913406 10.647221 -70.830960 4.047432 0.624117 96.516857 1.156493 -11.121618 -20.576097 0.000000 0.000000 0.000000 1.374374 -3.539688 0.686302 6.748205 -14.631179 -73.870026 3.163321 2.458779 93.945502 1.189993 8.991075 -20.325772 0.000000 0.000000 0.000000 -2.131035 -2.432117 1.514077 0.031255 3.448693 0.555047 -1.306477 -4.618123 10.221625 -0.013886 0.005478 0.005266 -1.277444 -4.659170 13.861089 -9.182757 11.119311 -11.930047 0.000000 0.000000 0.000000 0.491369 -4.268085 10.081212 3.362288 5.592706 5.687106 -15.385850 -49.904818 -26.509603 -154.149925 -76.305521 179.567572 0.000000 0.000000 0.000000 -2.999910 -2.629751 9.517604 18.025675 20.840623 6.637339 60.019741 11.310097 6.762281 -143.660789 82.760364 -147.601795 0.000000 0.000000 0.000000 
-0.792419 60.157455 5.360466 179.917005 4.215564 -179.895995 0.341285 -5.592362 0.141707 4.987747 10.665339 -70.853978 4.031170 0.604545 96.348861 1.056388 -11.158566 -20.482375 0.000000 0.000000 0.000000 1.441984 -3.550632 0.690256 6.878582 -14.687704 -74.020481 3.084347 2.350944 93.930865 1.054507 8.980163 -20.288773 0.000000 0.000000 0.000000 -2.086899 -2.473259 1.632669 -0.013350 3.324782 0.586600 -1.265107 -4.580856 10.112154 0.018368 0.002876 0.006388 -1.274806 -4.628531 13.802803 -9.877064 11.236696 -12.703758 0.000000 0.000000 0.000000 0.531397 -4.296943 10.020461 3.384438 5.898363 5.690280 -14.412585 -50.368516 -27.101245 -154.463444 -76.215520 178.972881 0.000000 0.000000 0.000000 -3.014910 -2.622259 9.480023 18.314527 20.995505 6.670379 60.192995 11.250839 6.700449 -146.887931 82.465737 -150.650696 0.000000 0.000000 0.000000 
-0.661225 60.186844 5.372059 179.921512 4.288786 -179.882157 0.431191 -5.621193 0.137393 5.060450 10.649568 -70.762590 4.043720 0.594197 96.254687 0.907323 -11.234935 -20.386006 0.000000 0.000000 0.000000 1.529170 -3.635441 0.685882 6.984776 -14.690581 -74.038445 3.039661 2.268814 93.888306 0.952227 8.981687 -20.224538 0.000000 0.000000 0.000000 -1.993503 -2.360778 1.792041 -0.073122 3.329188 0.683679 -1.213468 -4.669355 10.037546 0.030313 -0.123871 0.038404 -1.211211 -4.599437 13.657884 -10.502046 11.330208 -13.466367 0.000000 0.000000 0.000000 0.606753 -4.251856 9.895450 3.494310 6.097358 5.569468 -13.603314 -51.000773 -26.958808 -154.197599 -76.295740 177.618919 0.000000 0.000000 0.000000 -2.973612 -2.602493 9.340808 18.488948 21.109280 6.759065 60.373176 11.113276 6.619484 -147.838721 82.095049 -151.483282 0.000000 0.000000 0.000000 
-0.584486 60.207474 5.393831 179.927892 4.498952 -179.873728 0.513975 -5.589526 0.126173 5.111397 10.682808 -70.678176 4.084708 0.565005 96.203665 0.773701 -11.273865 -20.265694 0.000000 0.000000 0.000000 1.601157 -3.654584 0.668394 7.062802 -14.653262 -74.051770 3.030287 2.242648 93.836226 0.902847 8.984956 -20.148595 0.000000 0.000000 0.000000 -1.927756 -2.412264 1.961297 -0.178143 3.115576 0.776895 -1.119869 -4.425318 9.952822 0.039460 -0.128292 0.006524 -1.129993 -4.540965 13.589697 -11.050207 11.415510 -14.182932 0.000000 0.000000 0.000000 0.703773 -4.338785 9.805970 3.646746 6.341277 5.415504 -12.434394 -52.135688 -27.022820 -153.580642 -76.697997 175.686563 0.000000 0.000000 0.000000 -2.891072 -2.574354 9.280511 18.614274 21.318825 6.847481 60.718968 10.862636 6.533739 -148.557735 81.905559 -152.053931 0.000000 0.000000 0.000000 
